<?xml version="1.0" encoding="UTF-8" standalone="no"?>
<svg
   height="17.5"
   id="Layer_1"
   version="1.2"
   viewBox="0 0 14.05 14"
   width="17.5625"
   xml:space="preserve"
   sodipodi:docname="linkedin-icon.svg"
   inkscape:version="1.1.2 (b8e25be8, 2022-02-05)"
   xmlns:inkscape="http://www.inkscape.org/namespaces/inkscape"
   xmlns:sodipodi="http://sodipodi.sourceforge.net/DTD/sodipodi-0.dtd"
   xmlns="http://www.w3.org/2000/svg"
   xmlns:svg="http://www.w3.org/2000/svg"><defs
     id="defs13" /><sodipodi:namedview
     id="namedview11"
     pagecolor="#ffffff"
     bordercolor="#666666"
     borderopacity="1.0"
     inkscape:pageshadow="2"
     inkscape:pageopacity="0.0"
     inkscape:pagecheckerboard="0"
     showgrid="false"
     fit-margin-top="0"
     fit-margin-left="0"
     fit-margin-right="0"
     fit-margin-bottom="0"
     inkscape:zoom="20.9"
     inkscape:cx="8.8277512"
     inkscape:cy="8.7320574"
     inkscape:window-width="1296"
     inkscape:window-height="855"
     inkscape:window-x="40"
     inkscape:window-y="23"
     inkscape:window-maximized="0"
     inkscape:current-layer="Layer_1" /><g
     id="g4"
     transform="translate(-4.95,-5)"><path
       d="M 8,19 H 5 V 9 h 3 z m 11,0 h -3 v -5.342 c 0,-1.392 -0.496,-2.085 -1.479,-2.085 -0.779,0 -1.273,0.388 -1.521,1.165 C 13,14 13,19 13,19 h -3 c 0,0 0.04,-9 0,-10 h 2.368 l 0.183,2 h 0.062 c 0.615,-1 1.598,-1.678 2.946,-1.678 1.025,0 1.854,0.285 2.487,1.001 0.637,0.717 0.954,1.679 0.954,3.03 z"
       id="path2" /></g><g
     id="g8"
     transform="translate(-4.95,-5)"><ellipse
       cx="6.5"
       cy="6.5"
       rx="1.55"
       ry="1.5"
       id="ellipse6" /></g></svg>
